<?xml version="1.0" encoding="UTF-8" standalone="no"?>
<svg width="33px" height="33px" viewBox="0 0 33 33" version="1.1" xmlns="http://www.w3.org/2000/svg" xmlns:xlink="http://www.w3.org/1999/xlink">
    <!-- Generator: Sketch 39.1 (31720) - http://www.bohemiancoding.com/sketch -->
    <title>facebook</title>
    <desc>Created with Sketch.</desc>
    <defs></defs>
    <g id="Page-1" stroke="none" stroke-width="1" fill="none" fill-rule="evenodd" opacity="0.349999994">
        <g id="footer-icos" transform="translate(-92.000000, 0.000000)" fill="#000000">
            <path d="M108.5,0 C99.35625,0 92,7.35625 92,16.5 C92,25.575 99.35625,33 108.5,33 C117.64375,33 125,25.575 125,16.5 C125,7.35625 117.64375,0 108.5,0 L108.5,0 Z M112.41875,11.34375 L109.94375,11.34375 C109.66875,11.34375 109.325,11.75625 109.325,12.30625 L109.325,14.09375 L112.41875,14.09375 L112.41875,16.6375 L109.325,16.6375 L109.325,24.26875 L106.36875,24.26875 L106.36875,16.6375 L103.75625,16.6375 L103.75625,14.09375 L106.36875,14.09375 L106.36875,12.58125 C106.36875,10.38125 107.88125,8.6625 109.94375,8.6625 L112.41875,8.6625 L112.41875,11.34375 Z" id="facebook"></path>
        </g>
    </g>
</svg>