<?xml version="1.0" encoding="UTF-8" standalone="no"?>
<svg width="33px" height="33px" viewBox="0 0 33 33" version="1.1" xmlns="http://www.w3.org/2000/svg" xmlns:xlink="http://www.w3.org/1999/xlink">
    <!-- Generator: Sketch 39.1 (31720) - http://www.bohemiancoding.com/sketch -->
    <title>mail</title>
    <desc>Created with Sketch.</desc>
    <defs></defs>
    <g id="Page-1" stroke="none" stroke-width="1" fill="none" fill-rule="evenodd">
        <g id="Desktop" transform="translate(-683.000000, -1507.000000)">
            <g id="bck" transform="translate(163.000000, 0.000000)">
                <rect id="Rectangle-2" fill="#EEEEEE" x="0" y="0" width="1040" height="1960"></rect>
                <rect id="Rectangle-2" fill="#E3E3E3" x="5" y="0" width="1030" height="1960"></rect>
                <rect id="Rectangle-2" fill="#FFFFFF" x="10" y="0" width="1020" height="1960"></rect>
            </g>
            <g id="mail" transform="translate(683.000000, 1507.000000)" fill="#A6A6A6">
                <path d="M16.5,0 C7.35625,0 0,7.35625 0,16.5 C0,25.575 7.35625,33 16.5,33 C25.64375,33 33,25.575 33,16.5 C33,7.35625 25.64375,0 16.5,0 Z M8.54,11.972 C8.972,12.188 15.056,15.464 15.272,15.572 C15.524,15.716 15.812,15.752 16.1,15.752 C16.388,15.752 16.712,15.716 16.928,15.572 C17.144,15.464 23.228,12.188 23.66,11.972 C24.128,11.72 24.524,11 23.732,11 L8.504,11 C7.676,11 8.108,11.72 8.54,11.972 Z M23.84,13.772 C23.372,14.024 17.216,17.228 16.928,17.372 C16.604,17.552 16.388,17.552 16.1,17.552 C15.812,17.552 15.596,17.552 15.272,17.372 C14.984,17.228 8.864,14.024 8.36,13.772 C8,13.592 8,13.808 8,13.952 L8,20.576 C8,20.936 8.504,21.44 8.9,21.44 L23.3,21.44 C23.696,21.44 24.2,20.936 24.2,20.576 L24.2,13.952 C24.2,13.808 24.2,13.592 23.84,13.772 Z" id="Combined-Shape"></path>
            </g>
        </g>
    </g>
</svg>