<?xml version="1.0" encoding="UTF-8" standalone="no"?>
<svg width="33px" height="33px" viewBox="0 0 33 33" version="1.1" xmlns="http://www.w3.org/2000/svg" xmlns:xlink="http://www.w3.org/1999/xlink">
    <!-- Generator: Sketch 39.1 (31720) - http://www.bohemiancoding.com/sketch -->
    <title>twitter</title>
    <desc>Created with Sketch.</desc>
    <defs></defs>
    <g id="Page-1" stroke="none" stroke-width="1" fill="none" fill-rule="evenodd" opacity="0.349999994">
        <g id="footer-icos" transform="translate(-49.000000, 0.000000)" fill="#000000">
            <path d="M65.5,0 C56.425,0 49,7.35625 49,16.5 C49,25.575 56.425,33 65.5,33 C74.64375,33 82,25.575 82,16.5 C82,7.35625 74.64375,0 65.5,0 L65.5,0 Z M72.2375,13.475 L72.2375,13.8875 C72.2375,18.21875 68.9375,23.16875 62.95625,23.16875 C61.16875,23.16875 59.45,22.61875 58.00625,21.725 L58.7625,21.725 C60.275,21.725 61.71875,21.24375 62.81875,20.35 C61.375,20.35 60.20625,19.3875 59.79375,18.08125 C60,18.15 60.20625,18.15 60.4125,18.15 C60.6875,18.15 60.9625,18.08125 61.2375,18.0125 C59.725,17.7375 58.625,16.43125 58.625,14.85 C58.625,14.85 58.625,14.85 58.625,14.78125 C59.0375,15.05625 59.5875,15.19375 60.1375,15.19375 C59.24375,14.64375 58.625,13.6125 58.625,12.5125 C58.625,11.89375 58.83125,11.34375 59.10625,10.8625 C60.6875,12.85625 63.09375,14.1625 65.775,14.3 C65.775,14.025 65.70625,13.75 65.70625,13.54375 C65.70625,11.75625 67.15,10.3125 68.9375,10.3125 C69.9,10.3125 70.725,10.65625 71.34375,11.275 C72.1,11.1375 72.7875,10.8625 73.40625,10.51875 C73.13125,11.275 72.65,11.89375 71.9625,12.30625 C72.65,12.2375 73.26875,12.03125 73.81875,11.825 C73.40625,12.44375 72.85625,12.99375 72.2375,13.475 L72.2375,13.475 Z" id="twitter"></path>
        </g>
    </g>
</svg>